inDegrees=yes
name=ik_S57_A07_T01
DataType=double
version=3
OpenSimVersion=4.3-2021-08-27-4bc7ad9
endheader
time	pelvis_tilt	pelvis_list	pelvis_rotation	pelvis_tx	pelvis_ty	pelvis_tz	hip_flexion_r	hip_adduction_r	hip_rotation_r	knee_angle_r	knee_angle_r_beta	ankle_angle_r	subtalar_angle_r	mtp_angle_r	hip_flexion_l	hip_adduction_l	hip_rotation_l	knee_angle_l	knee_angle_l_beta	ankle_angle_l	subtalar_angle_l	mtp_angle_l	lumbar_extension	lumbar_bending	lumbar_rotation	arm_flex_r	arm_add_r	arm_rot_r	elbow_flex_r	pro_sup_r	wrist_flex_r	wrist_dev_r	arm_flex_l	arm_add_l	arm_rot_l	elbow_flex_l	pro_sup_l	wrist_flex_l	wrist_dev_l
19.19999999999968	-6.594675441097229	-5.125005385297969	22.47790450851925	0	0.9399999999999999	0	31.89195161053033	-9.714192873113991	-9.029798852065429	36.12020214552012	0.630416453925246	0	0	0	31.89195161053033	-9.714192873113991	-9.029798852065429	36.12020214552012	0.630416453925246	0	0	0	-7.068457115214661	-3.970532323247914	4.484869537048016	52.4482465743115	3.476684464679658	0.3954886021842448	65.62061455240034	94.78971739156233	0	0	17.88627746467211	-10.66533154426988	15.71026592380331	48.13992349493275	122.8938068645971	0	0
19.21999999999968	-6.5822634808156	-5.103352485640676	22.43282089114622	0	0.9399999999999999	0	31.89555076918461	-9.714457794040131	-9.030376598797847	36.12388625293423	0.6304807537296194	0	0	0	31.89555076918461	-9.714457794040131	-9.030376598797847	36.12388625293423	0.6304807537296194	0	0	0	-7.046442650732566	-3.959565249792332	4.512669832602523	52.21994482281471	3.397238655681895	0.2515412581346518	65.96123177258457	95.01677010364062	0	0	17.81997321713698	-10.64955494291755	15.69752761759959	48.16505309645407	122.8911571938724	0	0
19.23999999999968	-6.56603512159598	-5.072417459320617	22.37130726097966	0	0.9399999999999999	0	31.89953935434557	-9.714751282298536	-9.031016801153989	36.12796772928981	0.6305519889303667	0	0	0	31.89953935434557	-9.714751282298536	-9.031016801153989	36.12796772928981	0.6305519889303667	0	0	0	-7.017436120523763	-3.941276626782732	4.539840685370605	51.815866800641	3.269462883721531	0.1889999298064955	66.31718901436757	95.0430666454599	0	0	17.73272572109131	-10.62357932812382	15.69005319559116	48.17874913996661	122.8939553338826	0	0
19.25999999999968	-6.568281520399885	-5.036323462196735	22.26478769337486	0	0.9399999999999999	0	31.90314662270428	-9.715016389737306	-9.031595404018789	36.13166120468458	0.6306164522368468	0	0	0	31.90314662270428	-9.715016389737306	-9.031595404018789	36.13166120468458	0.6306164522368468	0	0	0	-7.001467693261102	-3.915330387237192	4.594910820939744	51.26975424129031	3.00100233692066	0.01266790220931952	67.0640063335606	95.4184225213008	0	0	17.67304611244324	-10.59156592999712	15.6735900440898	48.19792973035782	122.8672164514857	0	0
19.27999999999968	-6.55433166129756	-5.000562936808081	22.14613942671656	0	0.9399999999999999	0	31.90678584385086	-9.715283982951082	-9.032179384224847	36.13538388399691	0.6306814252478428	0	0	0	31.90678584385086	-9.715283982951082	-9.032179384224847	36.13538388399691	0.6306814252478428	0	0	0	-6.969541699672376	-3.897728544050601	4.662231429203691	50.55261376718887	2.636202700261027	-0.280889216632206	67.7671698272725	95.40308802305312	0	0	17.58747162983304	-10.58049324520426	15.6638864408445	48.19352090749389	122.8607661365053	0	0
19.29999999999968	-6.562495794115264	-4.951585284793977	21.83238053111799	0	0.9399999999999999	0	31.91291218142194	-9.715733975416498	-9.033161948728702	36.14165193259332	0.6307908233335251	0	0	0	31.91291218142194	-9.715733975416498	-9.033161948728702	36.14165193259332	0.6307908233335251	0	0	0	-6.94305585057418	-3.877723600416374	4.843205168979609	49.61037758046703	2.075742606006489	-0.5329496964118399	69.20247671756744	98.09255582822368	0	0	17.55075898940218	-10.54941573102229	15.55446743598772	48.20467407851206	122.8726373380166	0	0
19.31999999999968	-6.548204910162778	-4.90875561074661	21.70159382592284	0	0.9399999999999999	0	31.91900526154797	-9.716174445929058	-9.034129315097868	36.14797085048934	0.630901109255974	0	0	0	31.91900526154797	-9.716174445929058	-9.034129315097868	36.14797085048934	0.630901109255974	0	0	0	-6.907846861214178	-3.857382848752441	4.930507124588784	49.53877230338029	2.081900020228017	-0.4179976432965979	69.36275799043072	100.4893208631566	0	0	17.48487255732333	-10.52365509565234	15.51594115612801	48.21230173509566	122.8950044041697	0	0
